<svg width="220" height="48" viewBox="0 0 220 48" fill="none" xmlns="http://www.w3.org/2000/svg">
<path d="M41.9583 6H11.0417C8.60241 6 6.625 7.79086 6.625 10V38C6.625 40.2091 8.60241 42 11.0417 42H41.9583C44.3976 42 46.375 40.2091 46.375 38V10C46.375 7.79086 44.3976 6 41.9583 6Z" stroke="#4DFF8B" stroke-width="3" stroke-linecap="round" stroke-linejoin="round"/>
<path d="M6.625 18C6.625 16.9391 7.09033 15.9217 7.91861 15.1716C8.7469 14.4214 9.87029 14 11.0417 14H41.9583C43.1297 14 44.2531 14.4214 45.0814 15.1716C45.9097 15.9217 46.375 16.9391 46.375 18" stroke="#4DFF8B" stroke-width="2" stroke-linecap="round" stroke-linejoin="round"/>
<path d="M6.625 22H13.25C15.0167 22 16.7833 22.6 17.8875 23.8L20.3167 25.6C23.85 28.8 29.3708 28.8 32.9042 25.6L35.3333 23.8C36.4375 22.8 38.2042 22 39.9708 22H46.375" stroke="#4DFF8B" stroke-width="4" stroke-linecap="round" stroke-linejoin="round"/>
<path d="M63.2756 35V8.81818H80.6108V13.3821H68.8111V19.6207H79.4602V24.1847H68.8111V35H63.2756ZM84.2319 35V15.3636H89.6779V35H84.2319ZM86.9677 12.8324C86.158 12.8324 85.4634 12.5639 84.8839 12.027C84.3129 11.4815 84.0273 10.8295 84.0273 10.071C84.0273 9.32102 84.3129 8.67756 84.8839 8.14062C85.4634 7.59517 86.158 7.32244 86.9677 7.32244C87.7773 7.32244 88.4677 7.59517 89.0387 8.14062C89.6183 8.67756 89.908 9.32102 89.908 10.071C89.908 10.8295 89.6183 11.4815 89.0387 12.027C88.4677 12.5639 87.7773 12.8324 86.9677 12.8324ZM99.4865 23.6477V35H94.0405V15.3636H99.2308V18.8281H99.4609C99.8956 17.6861 100.624 16.7827 101.647 16.1179C102.67 15.4446 103.91 15.108 105.367 15.108C106.731 15.108 107.92 15.4062 108.934 16.0028C109.948 16.5994 110.737 17.4517 111.299 18.5597C111.862 19.6591 112.143 20.9716 112.143 22.4972V35H106.697V23.4688C106.705 22.267 106.398 21.3295 105.776 20.6562C105.154 19.9744 104.298 19.6335 103.207 19.6335C102.474 19.6335 101.826 19.7912 101.263 20.1065C100.71 20.4219 100.275 20.8821 99.9595 21.4872C99.6527 22.0838 99.495 22.804 99.4865 23.6477ZM122.034 35.3707C120.782 35.3707 119.665 35.1534 118.685 34.7188C117.705 34.2756 116.929 33.6236 116.358 32.7628C115.796 31.8935 115.515 30.8111 115.515 29.5156C115.515 28.4247 115.715 27.5085 116.115 26.767C116.516 26.0256 117.061 25.429 117.752 24.9773C118.442 24.5256 119.226 24.1847 120.104 23.9545C120.99 23.7244 121.919 23.5625 122.891 23.4688C124.033 23.3494 124.953 23.2386 125.652 23.1364C126.351 23.0256 126.858 22.8636 127.174 22.6506C127.489 22.4375 127.647 22.1222 127.647 21.7045V21.6278C127.647 20.8182 127.391 20.1918 126.88 19.7486C126.377 19.3054 125.661 19.0838 124.732 19.0838C123.752 19.0838 122.972 19.3011 122.392 19.7358C121.813 20.1619 121.429 20.6989 121.242 21.3466L116.205 20.9375C116.461 19.7443 116.963 18.7131 117.713 17.8438C118.463 16.9659 119.431 16.2926 120.615 15.8239C121.809 15.3466 123.189 15.108 124.757 15.108C125.848 15.108 126.892 15.2358 127.89 15.4915C128.895 15.7472 129.786 16.1435 130.561 16.6804C131.346 17.2173 131.963 17.9077 132.415 18.7514C132.867 19.5866 133.093 20.5881 133.093 21.7557V35H127.928V32.277H127.775C127.459 32.8906 127.037 33.4318 126.509 33.9006C125.98 34.3608 125.346 34.723 124.604 34.9872C123.863 35.2429 123.006 35.3707 122.034 35.3707ZM123.594 31.6122C124.395 31.6122 125.103 31.4545 125.716 31.1392C126.33 30.8153 126.811 30.3807 127.161 29.8352C127.51 29.2898 127.685 28.6719 127.685 27.9815V25.8977C127.515 26.0085 127.28 26.1108 126.982 26.2045C126.692 26.2898 126.364 26.3707 125.998 26.4474C125.631 26.5156 125.265 26.5795 124.898 26.6392C124.532 26.6903 124.199 26.7372 123.901 26.7798C123.262 26.8736 122.703 27.0227 122.226 27.2273C121.749 27.4318 121.378 27.7088 121.114 28.0582C120.85 28.3991 120.718 28.8253 120.718 29.3366C120.718 30.0781 120.986 30.6449 121.523 31.0369C122.069 31.4205 122.759 31.6122 123.594 31.6122ZM142.764 23.6477V35H137.318V15.3636H142.508V18.8281H142.738C143.173 17.6861 143.902 16.7827 144.924 16.1179C145.947 15.4446 147.187 15.108 148.645 15.108C150.008 15.108 151.197 15.4062 152.211 16.0028C153.225 16.5994 154.014 17.4517 154.576 18.5597C155.139 19.6591 155.42 20.9716 155.42 22.4972V35H149.974V23.4688C149.983 22.267 149.676 21.3295 149.054 20.6562C148.431 19.9744 147.575 19.6335 146.484 19.6335C145.751 19.6335 145.103 19.7912 144.541 20.1065C143.987 20.4219 143.552 20.8821 143.237 21.4872C142.93 22.0838 142.772 22.804 142.764 23.6477ZM168.585 35.3835C166.573 35.3835 164.843 34.9574 163.394 34.1051C161.954 33.2443 160.846 32.0511 160.07 30.5256C159.303 29 158.92 27.2443 158.92 25.2585C158.92 23.2472 159.308 21.483 160.083 19.9659C160.867 18.4403 161.979 17.2514 163.42 16.3991C164.86 15.5384 166.573 15.108 168.559 15.108C170.272 15.108 171.772 15.419 173.059 16.0412C174.346 16.6634 175.364 17.5369 176.114 18.6619C176.864 19.7869 177.278 21.108 177.354 22.625H172.215C172.07 21.6449 171.687 20.8565 171.065 20.2599C170.451 19.6548 169.646 19.3523 168.648 19.3523C167.805 19.3523 167.067 19.5824 166.437 20.0426C165.815 20.4943 165.329 21.1548 164.979 22.0241C164.63 22.8935 164.455 23.946 164.455 25.1818C164.455 26.4347 164.626 27.5 164.967 28.3778C165.316 29.2557 165.806 29.9247 166.437 30.3849C167.067 30.8452 167.805 31.0753 168.648 31.0753C169.271 31.0753 169.829 30.9474 170.323 30.6918C170.826 30.4361 171.239 30.0653 171.563 29.5795C171.896 29.0852 172.113 28.4929 172.215 27.8026H177.354C177.269 29.3026 176.86 30.6236 176.127 31.7656C175.403 32.8991 174.401 33.7855 173.123 34.4247C171.844 35.0639 170.332 35.3835 168.585 35.3835ZM167.306 34.8977H169.812L169.607 36.0099C170.485 36.1463 171.201 36.4744 171.755 36.9943C172.317 37.5142 172.603 38.2216 172.612 39.1165C172.62 40.3864 172.032 41.3963 170.847 42.1463C169.663 42.9048 168.001 43.2841 165.862 43.2841L165.81 40.8551C166.884 40.8551 167.724 40.723 168.329 40.4588C168.942 40.2031 169.262 39.8026 169.288 39.2571C169.305 38.7372 169.104 38.3409 168.687 38.0682C168.269 37.7955 167.617 37.6037 166.731 37.4929L167.306 34.8977ZM186.441 35.3707C185.188 35.3707 184.071 35.1534 183.091 34.7188C182.111 34.2756 181.336 33.6236 180.765 32.7628C180.202 31.8935 179.921 30.8111 179.921 29.5156C179.921 28.4247 180.121 27.5085 180.522 26.767C180.922 26.0256 181.468 25.429 182.158 24.9773C182.848 24.5256 183.632 24.1847 184.51 23.9545C185.397 23.7244 186.326 23.5625 187.297 23.4688C188.439 23.3494 189.36 23.2386 190.059 23.1364C190.757 23.0256 191.265 22.8636 191.58 22.6506C191.895 22.4375 192.053 22.1222 192.053 21.7045V21.6278C192.053 20.8182 191.797 20.1918 191.286 19.7486C190.783 19.3054 190.067 19.0838 189.138 19.0838C188.158 19.0838 187.378 19.3011 186.799 19.7358C186.219 20.1619 185.836 20.6989 185.648 21.3466L180.611 20.9375C180.867 19.7443 181.37 18.7131 182.12 17.8438C182.87 16.9659 183.837 16.2926 185.022 15.8239C186.215 15.3466 187.596 15.108 189.164 15.108C190.255 15.108 191.299 15.2358 192.296 15.4915C193.301 15.7472 194.192 16.1435 194.968 16.6804C195.752 17.2173 196.37 17.9077 196.821 18.7514C197.273 19.5866 197.499 20.5881 197.499 21.7557V35H192.334V32.277H192.181C191.865 32.8906 191.444 33.4318 190.915 33.9006C190.387 34.3608 189.752 34.723 189.01 34.9872C188.269 35.2429 187.412 35.3707 186.441 35.3707ZM188 31.6122C188.801 31.6122 189.509 31.4545 190.123 31.1392C190.736 30.8153 191.218 30.3807 191.567 29.8352C191.917 29.2898 192.091 28.6719 192.091 27.9815V25.8977C191.921 26.0085 191.686 26.1108 191.388 26.2045C191.098 26.2898 190.77 26.3707 190.404 26.4474C190.037 26.5156 189.671 26.5795 189.304 26.6392C188.938 26.6903 188.605 26.7372 188.307 26.7798C187.668 26.8736 187.11 27.0227 186.632 27.2273C186.155 27.4318 185.784 27.7088 185.52 28.0582C185.256 28.3991 185.124 28.8253 185.124 29.3366C185.124 30.0781 185.392 30.6449 185.929 31.0369C186.475 31.4205 187.165 31.6122 188 31.6122ZM218.062 20.9631L213.076 21.2699C212.991 20.8437 212.808 20.4602 212.527 20.1193C212.245 19.7699 211.875 19.4929 211.414 19.2884C210.963 19.0753 210.422 18.9688 209.791 18.9688C208.947 18.9688 208.235 19.1477 207.656 19.5057C207.076 19.8551 206.787 20.3239 206.787 20.9119C206.787 21.3807 206.974 21.777 207.349 22.1009C207.724 22.4247 208.368 22.6847 209.279 22.8807L212.833 23.5966C214.743 23.9886 216.166 24.6193 217.103 25.4886C218.041 26.358 218.51 27.5 218.51 28.9148C218.51 30.2017 218.13 31.331 217.372 32.3026C216.622 33.2741 215.591 34.0327 214.278 34.5781C212.974 35.1151 211.47 35.3835 209.765 35.3835C207.166 35.3835 205.095 34.8423 203.552 33.7599C202.018 32.669 201.119 31.1861 200.855 29.3111L206.211 29.0298C206.373 29.8224 206.765 30.4276 207.387 30.8452C208.01 31.2543 208.806 31.4588 209.778 31.4588C210.733 31.4588 211.5 31.2756 212.079 30.9091C212.667 30.5341 212.966 30.0526 212.974 29.4645C212.966 28.9702 212.757 28.5653 212.348 28.25C211.939 27.9261 211.308 27.679 210.456 27.5085L207.055 26.831C205.137 26.4474 203.71 25.7827 202.772 24.8366C201.843 23.8906 201.379 22.6847 201.379 21.2188C201.379 19.9574 201.72 18.8707 202.402 17.9588C203.092 17.0469 204.059 16.3438 205.304 15.8494C206.556 15.3551 208.022 15.108 209.701 15.108C212.181 15.108 214.133 15.6321 215.556 16.6804C216.988 17.7287 217.824 19.1562 218.062 20.9631Z" fill="#E9E9E9"/>
</svg>
